<svg xmlns="http://www.w3.org/2000/svg" width="42.079" height="33.664" viewBox="0 0 42.079 33.664">
  <defs>
    <style>
      .cls-1 {
        fill: #e6eef1;
      }
    </style>
  </defs>
  <path id="github-alt" class="cls-1" d="M16.314,87.2c0,1.832-.956,4.83-3.217,4.83s-3.217-3-3.217-4.83.956-4.83,3.217-4.83S16.314,85.373,16.314,87.2Zm25.765-4.427a19,19,0,0,1-1.534,8.328c-3.323,6.715-12.457,6.557-19,6.557-6.645,0-16.323.237-19.777-6.557A18.765,18.765,0,0,1,0,82.778a15.076,15.076,0,0,1,3.638-9.959,13.723,13.723,0,0,1-.675-4.278A8.729,8.729,0,0,1,4.243,64a13.7,13.7,0,0,1,9.538,3.156,33.58,33.58,0,0,1,7.776-.877,30.24,30.24,0,0,1,7.048.807A13.549,13.549,0,0,1,38.055,64a8.648,8.648,0,0,1,1.28,4.541,13.53,13.53,0,0,1-.675,4.225,15.1,15.1,0,0,1,3.419,10.011ZM36.442,87.2c0-3.848-2.341-7.241-6.443-7.241a36.045,36.045,0,0,0-4.909.526,25.758,25.758,0,0,1-3.954.281,25.916,25.916,0,0,1-3.954-.281,35.46,35.46,0,0,0-4.909-.526c-4.1,0-6.443,3.393-6.443,7.241,0,7.7,7.048,8.88,13.185,8.88H23.24C29.4,96.085,36.442,94.911,36.442,87.2ZM29.2,82.375c-2.262,0-3.217,3-3.217,4.83s.956,4.83,3.217,4.83,3.217-3,3.217-4.83S31.463,82.375,29.2,82.375Z" transform="translate(0 -64)"/>
</svg>
