<svg xmlns="http://www.w3.org/2000/svg" width="39.274" height="39.273" viewBox="0 0 39.274 39.273">
  <defs>
    <style>
      .cls-1 {
        fill: #e6eef1;
      }
    </style>
  </defs>
  <path id="linkedin-in" class="cls-1" d="M8.791,39.283H.649V13.062H8.791ZM4.716,9.486a4.738,4.738,0,1,1,4.716-4.76A4.755,4.755,0,0,1,4.716,9.486Zm34.55,29.8H31.14V26.519c0-3.042-.061-6.943-4.233-6.943-4.233,0-4.882,3.3-4.882,6.724V39.283H13.891V13.062H21.7v3.577h.114a8.556,8.556,0,0,1,7.7-4.234c8.241,0,9.755,5.426,9.755,12.475v14.4Z" transform="translate(0 -0.01)"/>
</svg>
