<svg xmlns="http://www.w3.org/2000/svg" width="44.884" height="36.454" viewBox="0 0 44.884 36.454">
  <defs>
    <style>
      .cls-1 {
        fill: #e6eef1;
      }
    </style>
  </defs>
  <path id="twitter" class="cls-1" d="M40.271,57.167c.028.4.028.8.028,1.2,0,12.161-9.256,26.173-26.173,26.173A26,26,0,0,1,0,80.407a19.03,19.03,0,0,0,2.221.114,18.423,18.423,0,0,0,11.42-3.93,9.215,9.215,0,0,1-8.6-6.38,11.6,11.6,0,0,0,1.737.142A9.73,9.73,0,0,0,9.2,70.04a9.2,9.2,0,0,1-7.376-9.028V60.9a9.264,9.264,0,0,0,4.158,1.168,9.213,9.213,0,0,1-2.848-12.3A26.148,26.148,0,0,0,22.1,59.389a10.384,10.384,0,0,1-.228-2.107,9.208,9.208,0,0,1,15.92-6.294,18.111,18.111,0,0,0,5.838-2.221,9.174,9.174,0,0,1-4.044,5.069,18.442,18.442,0,0,0,5.3-1.424,19.774,19.774,0,0,1-4.614,4.756Z" transform="translate(0 -48.082)"/>
</svg>
